<?xml version="1.0" encoding="UTF-8"?>
<svg id="Layer_2" xmlns="http://www.w3.org/2000/svg" version="1.1" viewBox="0 0 63.8 60.9">
  <!-- Generator: Adobe Illustrator 30.8.1, SVG Export Plug-In . SVG Version: 2.1.4 Build 1)  -->
  <defs>
    <style>
      .st0 {
        fill: #fcc40f;
      }

      .st1 {
        fill: #fff;
      }
    </style>
  </defs>
  <polygon class="st0" points="22.4 19.6 13.8 25.8 13.8 46.2 22.4 44.4 22.4 19.6"/>
  <path class="st0" d="M13.8,46.2v.2h0v-.2Z"/>
  <polygon class="st1" points="40.2 44.2 40.2 26.4 42.7 28.4 42.7 14.1 34.4 7.7 34.4 43 40.2 44.2"/>
  <polygon class="st1" points="49.6 46.1 49.6 46 49.6 46.1 49.6 46.1"/>
  <polygon class="st1" points="42.7 28.4 42.7 44.7 49.6 46 49.6 33.8 42.7 28.4"/>
  <polygon class="st0" points="25.2 43.9 31.4 42.6 31.4 0 22.4 6.9 22.4 19.6 25.2 17.6 25.2 43.9"/>
  <path class="st1" d="M42.3,48h-.8c0-.1-5.3,8.1-5.3,8.1-.9,1.5-2.5,2.3-4.3,2.3s-3.3-.9-4.3-2.3l-5.3-8.2c-.9.1-1.8.2-2.7.4l5.9,9.1c1.4,2.2,3.8,3.5,6.4,3.5s5-1.3,6.4-3.5l6-9.2c-.6,0-1.3-.2-1.9-.3h0Z"/>
  <path class="st1" d="M10.7,30l-7.4-11.4c-1-1.6-1.1-3.5-.2-5.2.9-1.7,2.6-2.7,4.5-2.7h11.7v-2.5H7.6c-2.8,0-5.3,1.5-6.7,4-1.4,2.5-1.2,5.4.3,7.8l9.4,14.6v-4.6Z"/>
  <path class="st1" d="M62.8,12.3c-1.3-2.5-3.8-4-6.7-4h-13.5v2.4h.1c0,0,13.4,0,13.4,0,1.9,0,3.6,1,4.5,2.7s.8,3.6-.2,5.2l-7.4,11.4v4.6l9.5-14.6c1.5-2.4,1.6-5.3.3-7.8h0Z"/>
</svg>